{"title":"Cuffs S01E05 x264 RB58.mp4","uid":12841449,"size":656778962,"categoryP":"video","categoryS":"tv_shows","magnet":"?xt=urn:btih:6442be2ce5c492d858f9c8d5a14b19c97c655d52&amp;dn=Cuffs+S01E05+x264+RB58.mp4&amp;tr=udp%3A%2F%2Ftracker.leechers-paradise.org%3A6969&amp;tr=udp%3A%2F%2Fzer0day.ch%3A1337&amp;tr=udp%3A%2F%2Fopen.demonii.com%3A1337&amp;tr=udp%3A%2F%2Ftracker.coppersurfer.tk%3A6969&amp;tr=udp%3A%2F%2Fexodus.desync.com%3A6969","seeders":0,"leechers":1,"uploader":"RedBaron58","files":1,"time":1448500799,"description":"Cuffs S01E05 x264 mp4\r\n \nhttp://www.imdb.com/title/tt4568288/\r\n\r\nTrailer:\r\n\r\n\r\nPlease be patient My intial upload speed is limited.\r\nThank you for your kind comments and feedback on my other torrents, your feedback is welcome.\r\n\r\n\r\nAbout the Episode:\r\nAs Felix investigates a high-profile kidnapping of a vulnerable victim where all is not as it seems, \r\nheartbroken Jo loses sight of professionalism. She ends up taking her emotions out on a criminal, \r\nleaving Carl to pick up the pieces. Meanwhile, Donna and Lino must cope with a series of \r\ntime wasters, and Jake and Ryan finally bond during a thrilling foot chase through the \r\nstreets of the city. \r\nHowever, the conquest turns quickly sour when Jake is forced to face up to the harsh realities \r\nof the job\r\n \r\nstarring Ashley Walters and Jacob Ifan\r\n\r\n\r\nI hope you enjoy.\r\n\r\n\r\nTechnical:\r\n\r\nGeneral\r\nComplete name                            : G:Cuffs S01E05 x264 RB58.mp4\r\nFormat                                   : MPEG-4\r\nFormat profile                           : Base Media\r\nCodec ID                                 : isom\r\nFile size                                : 626 MiB\r\nDuration                                 : 57mn 28s\r\nOverall bit rate                         : 1 524 Kbps\r\nWriting application                      : Lavf54.63.104\r\n\r\nVideo\r\nID                                       : 1\r\nFormat                                   : AVC\r\nFormat/Info                              : Advanced Video Codec\r\nFormat profile                           :   \r\nFormat settings, CABAC                   : Yes\r\nFormat settings, ReFrames                : 4 frames\r\nCodec ID                                 : avc1\r\nCodec ID/Info                            : Advanced Video Coding\r\nDuration                                 : 57mn 28s\r\nBit rate                                 : 1 400 Kbps\r\nWidth                                    : 832 pixels\r\nHeight                                   : 468 pixels\r\nDisplay aspect ratio                     : 16:9\r\nFrame rate mode                          : Constant\r\nFrame rate                               : 50.000 fps\r\nColor space                              : YUV\r\nChroma subsampling                       : 4:2:0\r\nBit depth                                : 8 bits\r\nScan type                                : Progressive\r\nBits/(Pixel*Frame)                       : 0.072\r\nStream size                              : 575 MiB (92%)\r\nWriting library                          : x264 core 123 r2189 35cf912\r\nEncoding settings                        : cabac=1 / ref=3 / deblock=1:0:0\r\n\r\nAudio\r\nID                                       : 2\r\nFormat                                   : AAC\r\nFormat/Info                              : Advanced Audio Codec\r\nFormat profile                           : LC\r\nCodec ID                                 : 40\r\nDuration                                 : 57mn 28s\r\nBit rate mode                            : Constant\r\nBit rate                                 : 112 Kbps\r\nChannel(s)                               : 2 channels\r\nChannel positions                        : Front: L R\r\nSampling rate                            : 48.0 KHz\r\nCompression mode                         : Lossy\r\nStream size                              : 46.1 MiB (7%)\r\nLanguage                                 : English","torrent":{"xt":"urn:btih:6442be2ce5c492d858f9c8d5a14b19c97c655d52","amp;dn":"Cuffs+S01E05+x264+RB58.mp4","amp;tr":["udp%3A%2F%2Ftracker.leechers-paradise.org%3A6969","udp%3A%2F%2Fzer0day.ch%3A1337","udp%3A%2F%2Fopen.demonii.com%3A1337","udp%3A%2F%2Ftracker.coppersurfer.tk%3A6969","udp%3A%2F%2Fexodus.desync.com%3A6969"],"infoHash":"6442be2ce5c492d858f9c8d5a14b19c97c655d52","infoHashBuffer":{"type":"Buffer","data":[100,66,190,44,229,196,146,216,88,249,200,213,161,75,25,201,124,101,93,82]},"announce":[],"urlList":[]}}